Coordinates
version=1
nRows=16
nColumns=40
inDegrees=yes

Units are S.I. units (second, meters, Newtons, ...)
If the header above contains a line with 'inDegrees', this indicates whether rotational values are in degrees (yes) or radians (no).

endheader
time	pelvis_tilt	pelvis_list	pelvis_rotation	pelvis_tx	pelvis_ty	pelvis_tz	hip_flexion_r	hip_adduction_r	hip_rotation_r	knee_angle_r	knee_angle_r_beta	ankle_angle_r	subtalar_angle_r	mtp_angle_r	hip_flexion_l	hip_adduction_l	hip_rotation_l	knee_angle_l	knee_angle_l_beta	ankle_angle_l	subtalar_angle_l	mtp_angle_l	lumbar_extension	lumbar_bending	lumbar_rotation	arm_flex_r	arm_add_r	arm_rot_r	elbow_flex_r	pro_sup_r	wrist_flex_r	wrist_dev_r	arm_flex_l	arm_add_l	arm_rot_l	elbow_flex_l	pro_sup_l	wrist_flex_l	wrist_dev_l
      0.00000000	    -10.04001775	      6.86637839	     -4.10067180	      0.05464249	      1.31002631	      0.00813460	     38.28484034	    -10.47138025	     -6.45283988	     43.94738257	      0.76702652	    -18.33859146	    -31.75272072	      0.00000000	     83.29804843	     -4.28689293	      2.70645695	    105.30995879	      1.83800552	     -6.64121423	    -16.75639570	      0.00000000	    -35.86611598	     -5.01969334	     -4.59406516	     59.13644780	      7.36849385	    -30.58298359	     51.98017488	     84.88167214	      0.00000000	      0.00000000	     72.67754910	      1.18842935	    -10.02873918	     43.46802662	     85.76815370	      0.00000000	      0.00000000
      0.01700000	     -9.49414453	      7.15025109	     -4.59442319	      0.05445788	      1.31066273	      0.00862244	     38.48430351	    -10.32580712	     -3.83165956	     47.80926733	      0.83442913	    -16.92921672	    -33.07134515	      0.00000000	     81.96547585	     -4.11448852	      1.56127532	    101.80073365	      1.77675798	     -5.81463391	    -17.97978482	      0.00000000	    -36.36312185	     -5.25988114	     -4.45426617	     59.14216364	      7.18628773	    -30.18245890	     52.05097743	     84.90469035	      0.00000000	      0.00000000	     72.39498626	      1.12606087	    -10.07916194	     43.75864042	     85.73195575	      0.00000000	      0.00000000
      0.03300000	     -9.01769764	      7.75430588	     -5.34198953	      0.05409874	      1.31114340	      0.00941487	     38.94050855	    -10.25295399	     -0.78607453	     51.69835445	      0.90230650	    -16.01384221	    -33.53429811	      0.00000000	     80.65168609	     -4.11848777	      0.00377862	     98.12854833	      1.71266626	     -5.70004912	    -20.01613334	      0.00000000	    -36.75401731	     -5.94190068	     -4.30149363	     59.11754156	      7.09380353	    -29.91758546	     52.16765678	     84.89386016	      0.00000000	      0.00000000	     72.22785489	      0.96590423	     -9.94319262	     43.88264070	     85.75115292	      0.00000000	      0.00000000
      0.05000000	     -8.58413034	      7.91439399	     -5.94238235	      0.05387918	      1.31158868	      0.00999483	     39.59229311	     -9.89924192	      1.47142367	     56.07203210	      0.97864158	    -14.47492393	    -33.80943792	      0.00000000	     79.04420394	     -4.06442557	     -0.80201099	     94.23113596	      1.64464358	     -5.35849435	    -21.41127822	      0.00000000	    -37.10728411	     -6.18668066	     -4.06122410	     59.19356353	      7.06825958	    -29.66282750	     52.16554960	     84.88718808	      0.00000000	      0.00000000	     71.98934668	      0.84531026	    -10.06268604	     44.15302966	     85.71457917	      0.00000000	      0.00000000
      0.06700000	     -8.26103071	      7.56354789	     -6.53795702	      0.05372276	      1.31198867	      0.01041057	     40.71090402	     -9.12562117	      2.95934174	     61.16193991	      1.06747723	    -12.60926537	    -33.92092918	      0.00000000	     77.12166086	     -4.13728584	     -0.74864141	     89.97945913	      1.57043782	     -5.00326247	    -22.61882438	      0.00000000	    -37.36702077	     -6.08103731	     -3.45588173	     59.36239891	      7.08634084	    -29.58967777	     52.10468996	     84.52457443	      0.00000000	      0.00000000	     71.88128840	      0.85280481	    -10.27625963	     44.30482033	     85.34285612	      0.00000000	      0.00000000
      0.08300000	     -7.93722775	      7.22234962	     -7.28901485	      0.05354725	      1.31241757	      0.01086109	     42.21680326	     -8.28565664	      4.24833546	     66.70226437	      1.16417413	    -10.94702152	    -33.97015774	      0.00000000	     74.81542173	     -4.31956713	     -0.62316338	     85.38328853	      1.49021951	     -5.00308516	    -24.22215017	      0.00000000	    -37.62367591	     -6.12136699	     -2.77515707	     59.60744800	      7.29208789	    -29.73808035	     52.06864808	     84.36080098	      0.00000000	      0.00000000	     71.84436147	      0.82706250	    -10.55194647	     44.48432783	     85.26575731	      0.00000000	      0.00000000
      0.10000000	     -7.72364745	      6.73045889	     -7.98619689	      0.05345678	      1.31269731	      0.01137652	     43.87790808	     -7.29617010	      5.33434904	     72.17111661	      1.25962361	     -9.22302580	    -33.93441122	      0.00000000	     72.22306965	     -4.53897975	     -0.31820567	     80.61698665	      1.40703185	     -4.86307746	    -25.34512292	      0.00000000	    -37.75025024	     -5.98257807	     -2.05448668	     59.85259144	      7.38559560	    -29.66776695	     51.79214524	     83.94511178	      0.00000000	      0.00000000	     71.76097155	      0.86030504	    -10.99760403	     44.54224824	     84.81038330	      0.00000000	      0.00000000
      0.11700000	     -7.51141071	      6.31185650	     -8.77914509	      0.05337269	      1.31295856	      0.01217924	     45.73389849	     -6.22470447	      6.57485644	     77.65108875	      1.35526717	     -7.87652372	    -33.93412364	      0.00000000	     69.17862596	     -4.86432909	     -0.35466466	     75.54693274	      1.31854272	     -5.21536053	    -26.26567654	      0.00000000	    -37.89503430	     -5.89487736	     -1.35457395	     60.04656715	      7.49983465	    -29.51389674	     51.70572455	     84.26834773	      0.00000000	      0.00000000	     71.52838230	      0.88305487	    -11.61616367	     44.86489951	     85.07548626	      0.00000000	      0.00000000
      0.13300000	     -7.34756260	      6.15882305	     -9.87992449	      0.05314685	      1.31303636	      0.01341373	     47.98127884	     -5.03317023	      8.21884199	     83.17385417	      1.45165761	     -6.94261516	    -33.78699531	      0.00000000	     65.72713679	     -5.33290293	     -0.93931480	     70.11267271	      1.22369699	     -5.76672286	    -27.44408350	      0.00000000	    -37.92056306	     -6.22882839	     -0.58420308	     60.27018841	      7.60527549	    -29.36362814	     51.38731676	     84.59281425	      0.00000000	      0.00000000	     71.39934410	      0.97111180	    -12.36541095	     44.97907231	     85.35433083	      0.00000000	      0.00000000
      0.15000000	     -7.27461913	      5.76745298	    -10.80741048	      0.05296749	      1.31312923	      0.01445654	     50.40105287	     -3.72264854	      9.37802219	     88.36310392	      1.54222710	     -6.83488445	    -33.69839772	      0.00000000	     62.18053469	     -5.83811379	     -1.33971296	     64.72929554	      1.12973933	     -6.53311909	    -28.01700323	      0.00000000	    -37.90240347	     -6.26075944	      0.25384773	     60.42203855	      7.69600445	    -29.22429015	     51.16127803	     84.78251067	      0.00000000	      0.00000000	     71.19268260	      1.02397637	    -12.96937259	     45.13512431	     85.49453494	      0.00000000	      0.00000000
      0.16700000	     -7.19293648	      5.64870059	    -12.06891961	      0.05269058	      1.31300254	      0.01566343	     53.31110022	     -2.25951529	     10.83040678	     93.45727660	      1.63113719	     -7.63046890	    -33.58745677	      0.00000000	     58.32053953	     -6.46259292	     -2.30544379	     59.37516016	      1.03629204	     -7.25614287	    -28.70336114	      0.00000000	    -37.80451853	     -6.77994535	      1.21239298	     60.53584724	      7.77204880	    -29.00888425	     50.87774278	     84.76450204	      0.00000000	      0.00000000	     70.99918941	      1.07849947	    -13.54689264	     45.17530004	     85.49681117	      0.00000000	      0.00000000
      0.18300000	     -7.23714268	      5.33085880	    -13.11199053	      0.05246071	      1.31273165	      0.01660462	     56.50052298	     -0.72942066	     11.79933177	     98.24948395	      1.71477698	     -8.94825206	    -33.46668966	      0.00000000	     54.41082959	     -7.05566753	     -3.14245774	     53.99772559	      0.94243810	     -8.43038902	    -28.56779144	      0.00000000	    -37.60925747	     -6.99669405	      2.16271391	     60.61983801	      7.86477488	    -28.83751458	     50.56787178	     84.85117490	      0.00000000	      0.00000000	     70.74206395	      1.09685604	    -14.04977309	     45.24183876	     85.63741895	      0.00000000	      0.00000000
      0.20000000	     -7.36223693	      5.11158520	    -14.04450810	      0.05221166	      1.31230059	      0.01747518	     59.72289544	      0.79971645	     12.63059213	    102.41235119	      1.78743272	    -10.03361864	    -33.34437920	      0.00000000	     50.68747424	     -7.55205979	     -4.24941475	     48.95720929	      0.85446449	     -9.75847606	    -28.14438176	      0.00000000	    -37.33606821	     -7.24824027	      3.00707120	     60.66304986	      7.91673773	    -28.64263159	     50.29614219	     84.96181929	      0.00000000	      0.00000000	     70.45418970	      1.09907000	    -14.46298518	     45.42619367	     85.67756826	      0.00000000	      0.00000000
      0.21700000	     -7.61014588	      4.82961264	    -14.72782030	      0.05191630	      1.31181015	      0.01797710	     62.90622580	      2.21842088	     13.04726542	    105.86633057	      1.84771604	    -10.42494346	    -33.12244426	      0.00000000	     47.30390086	     -7.98474668	     -5.32862724	     44.46423666	      0.77604733	    -11.45995484	    -27.10522596	      0.00000000	    -37.00845556	     -7.27831719	      3.74414012	     60.66664279	      7.93776594	    -28.41432915	     50.12335198	     84.83702418	      0.00000000	      0.00000000	     70.19798199	      0.97741356	    -14.51228643	     45.61498618	     85.51869788	      0.00000000	      0.00000000
      0.23300000	     -7.91455886	      4.50913120	    -15.25566240	      0.05164723	      1.31124723	      0.01836993	     66.10046205	      3.59162010	     13.17071158	    108.75019368	      1.89804894	    -10.39470329	    -32.86229901	      0.00000000	     44.14244134	     -8.37239101	     -6.42535504	     40.49138014	      0.70670790	    -13.27864636	    -25.82928004	      0.00000000	    -36.65706632	     -7.19136899	      4.41303365	     60.64638118	      8.00026418	    -28.26304617	     49.98711292	     84.80961720	      0.00000000	      0.00000000	     69.93240191	      0.85961895	    -14.46178489	     45.84832742	     85.43188749	      0.00000000	      0.00000000
      0.25000000	     -8.12045679	      4.50036390	    -15.96404441	      0.05132599	      1.31064795	      0.01898206	     69.13538532	      5.01535157	     13.57869902	    110.94096907	      1.93628519	    -10.19955986	    -32.63051155	      0.00000000	     41.30075669	     -8.63607341	     -8.02957883	     37.36016485	      0.65205789	    -15.05817299	    -24.56995594	      0.00000000	    -36.34887669	     -7.52369642	      5.00699581	     60.65208980	      8.02129262	    -28.10994199	     49.82951373	     84.90563615	      0.00000000	      0.00000000	     69.71043387	      0.67607789	    -14.37329154	     46.19132142	     85.44942404	      0.00000000	      0.00000000
